<?xml version="1.0" encoding="utf-8"?>
<!-- Generator: Adobe Illustrator 22.1.0, SVG Export Plug-In . SVG Version: 6.00 Build 0)  -->
<svg version="1.1" id="Layer_1" xmlns="http://www.w3.org/2000/svg" xmlns:xlink="http://www.w3.org/1999/xlink" x="0px" y="0px"
	 viewBox="0 0 1366 640" style="enable-background:new 0 0 1366 640;" xml:space="preserve">
<style type="text/css">
	.st0{fill:#EDEDED;}
	.st1{fill:#FFFFFF;}
	.st2{fill:#F05A2A;}
	.st3{fill:#F8EC3A;}
	.st4{fill:#C6421E;}
	.st5{fill:#AA290B;}
	.st6{fill:#2B2B38;}
	.st7{fill:#EFEFEF;}
	.st8{fill:#FCFCFC;}
	.st9{fill:#A5DCF0;}
	.st10{opacity:0.3;fill:#E6E6E7;}
	.st11{opacity:0.5;fill:#FFFFFF;}
</style>
<path class="st0" d="M681.3,398.7c-3-0.6-5.9-0.9-8.8-0.9c0.8-2.3,1.5-4.7,2-7.1c5.7-28.4-12.7-56-41.1-61.7
	c-24.2-4.8-47.8,7.9-57.7,29.3c-5.8-5.2-13-8.9-21.2-10.5c-17.8-3.6-35.3,3.9-45.3,17.7c-2.9-1.2-5.9-2.1-9.1-2.7
	c-27.6-5.5-54.4,12.4-59.9,40c-4.3,21.4,5.5,42.3,22.9,53.2h257C724.9,429.6,707.7,404,681.3,398.7z"/>
<polygon class="st0" points="543.3,68.7 581.4,423.9 714.8,380.1 582.8,55.4 "/>
<polygon class="st1" points="550,89 615.8,419.8 699.9,383.6 574.9,78.1 "/>
<path class="st0" d="M1275.9,398.7c-3-0.6-5.9-0.9-8.8-0.9c0.8-2.3,1.5-4.7,2-7.1c5.7-28.4-12.7-56-41.1-61.7
	c-24.2-4.8-47.8,7.9-57.7,29.3c-5.8-5.2-13-8.9-21.2-10.5c-17.8-3.6-35.3,3.9-45.3,17.7c-2.9-1.2-5.9-2.1-9.1-2.7
	c-27.6-5.5-54.4,12.4-59.9,40c-4.3,21.4,5.5,42.3,22.9,53.2h257C1319.5,429.6,1302.3,404,1275.9,398.7z"/>
<path class="st0" d="M698.7,410.9c-2-0.9-4.1-1.4-6.2-1.8c0.6-1.1,1.1-2.1,1.6-3.3c6.8-16.1-0.8-34.7-16.9-41.5
	c-8.9-3.7-18.5-3.1-26.5,0.9c-1.7-9-7.7-17.1-16.8-20.9c-11-4.6-23.4-1.7-31.3,6.4c-2.1-2-4.4-3.7-7.1-5.1v103.4
	c9.4,3.7,19.5,2.6,27.7-2c1.5,3.4,3.7,6.5,6.4,9h77.8c2.5-2.5,4.5-5.4,5.9-8.8C719.4,433.1,712.8,416.8,698.7,410.9z M632,397.2
	c0.5-0.2,0.9-0.3,1.4-0.5c0.1,0.9,0.2,1.8,0.4,2.7C633.3,398.6,632.7,397.9,632,397.2z"/>
<path class="st0" d="M1082.5,435.8c4.3-11.9,1.6-24.6-5.9-33.7c2.8-2.5,5.1-5.7,6.5-9.5c4.1-11.3-1-23.6-11.3-28.9
	c2.8-3.2,5.1-6.9,6.6-11.1c6.5-17.9-2.7-37.6-20.6-44.1c-17.9-6.5-37.6,2.7-44.1,20.6c-0.7,2-1.2,4-1.6,6c-1.5-0.8-3.1-1.5-4.7-2.1
	c-19.1-6.9-40.1,2.9-47,22c-5.9,16.3,0.4,34,14.2,43.1c-4.2,3.5-7.5,8.1-9.5,13.6c-4.4,12-1,24.9,7.5,33.3c-1.1,1.9-2.1,3.9-2.9,6
	c-0.6,1.7-1.1,3.3-1.4,5h94.7C1071.7,452.5,1079.1,445.4,1082.5,435.8z"/>
<path class="st0" d="M1364.4,345.4c-1.7-1.1-3.6-2-5.6-2.8c-17.5-6.9-37.3,1.7-44.1,19.3c-0.8,2-1.3,3.9-1.7,5.9
	c-1.5-0.8-3-1.6-4.6-2.2c-18.7-7.3-39.8,1.9-47.1,20.5c-6.3,15.9-0.5,33.6,12.9,43c-4.2,3.3-7.7,7.8-9.8,13.2
	c-1.8,4.5-2.4,9.2-2.1,13.7h102.1V345.4z"/>
<path class="st0" d="M962.2,380.4c1.7-2.3,3.1-4.8,4.1-7.6c4.6-13.3-2.6-27.1-15.9-30.7c-12.1-3.3-25.2,2.9-31,14
	c-11.3-0.3-22.2,6.9-26.1,18.1c-3.1,9.1-0.7,18.3,5.5,24.3c-5.5,1.8-10.1,6.1-12.1,11.9c-3.2,9.3,1.8,18.9,11.1,21.4
	c0.8,0.2,1.7,0.4,2.5,0.5c0,0.1-0.1,0.1-0.1,0.2c-3.4,10,1.9,20.3,12,23c10,2.7,21-3.2,24.4-13.2c0.6-1.8,1-3.6,1-5.4
	c0.3,0.1,0.5,0.2,0.8,0.2c16.1,4.3,33.5-5.2,39-21.2C982.4,401.1,975.6,386.1,962.2,380.4z"/>
<path class="st0" d="M959.9,404.9c-0.8-28.2-24.2-50.4-52.3-49.6c-9.7,0.3-18.6,3.2-26.2,8.1c0-0.2,0-0.4,0-0.6
	c-0.7-27-23.2-48.3-50.2-47.6c-18,0.5-33.5,10.7-41.6,25.4c-4.8-2.4-10.3-3.8-16-3.6c-17.1,0.5-30.8,13.6-32.5,30.2
	c-5.7-2.1-11.8-3.2-18.2-3c-27.1,0.7-48.5,23.3-47.8,50.4c0.5,17.8,10.4,33.2,24.8,41.4h220C943.3,450.8,960.5,429.7,959.9,404.9z"
	/>
<path class="st1" d="M1248.2,388.4c-21.9-11.3-48.1-5.7-63.6,12.1c-4.1-6.6-10-12.2-17.4-16c-16.2-8.4-35-6-48.5,4.5
	c-2.5-1.9-5.1-3.7-8-5.1c-25-12.9-55.7-3.2-68.7,21.8c-8.5,16.5-7.2,35.6,1.9,50.3h228C1283.1,430.9,1272.9,401.1,1248.2,388.4z"/>
<path class="st1" d="M722.6,438.8c-1.2-13.5-13-23.5-26.5-22.3c-1.9,0.2-3.8,0.6-5.6,1.1c0-1.1,0-2.2-0.1-3.2
	c-1.3-15.4-14.9-26.9-30.4-25.6c-8.5,0.7-15.8,5.2-20.4,11.6c-5.1-6.4-13.1-10.2-21.8-9.4c-10.6,0.9-19,8.3-21.9,17.9
	c-0.1,0-0.2-0.1-0.4-0.1V456h121.9C721.1,451.3,723.1,445.3,722.6,438.8z M638.2,433.3c0.3-0.3,0.6-0.6,0.9-1c0.5,0.7,0.9,1.3,1.5,2
	C639.7,433.9,638.9,433.6,638.2,433.3z"/>
<path class="st1" d="M1076.6,428c2.8-2.5,5.1-5.7,6.5-9.5c4.1-11.3-1-23.6-11.3-28.9c2.8-3.2,5.1-6.9,6.6-11.1
	c6.5-17.9-2.7-37.6-20.6-44.1c-17.9-6.5-37.6,2.7-44.1,20.6c-0.7,2-1.2,4-1.6,6c-1.5-0.8-3.1-1.5-4.7-2.1c-19.1-6.9-40.1,2.9-47,22
	c-5.9,16.3,0.4,34,14.2,43.1c-4.2,3.5-7.5,8.1-9.5,13.6c-2.2,6.2-2.4,12.6-0.9,18.5h120C1085.9,445.9,1083,435.7,1076.6,428z"/>
<path class="st1" d="M1364.4,403.7c-14.4-6.5-31.8-2.3-41.5,10.9c-1.2,1.7-2.3,3.5-3.2,5.3c-1.2-1.2-2.5-2.3-3.9-3.3
	c-16.2-11.8-38.9-8.3-50.8,7.9c-6.9,9.4-8.6,21.1-5.6,31.6h104.9V403.7z"/>
<path class="st1" d="M969.2,447.2c-0.2-1.9-0.6-3.8-1.3-5.5c0.3,0,0.5,0,0.8,0c16.7-1.1,29.2-16,27.8-33.1
	c-1.3-15.7-13.7-27.9-28.6-29.1c0.7-2.7,1-5.7,0.7-8.7c-1.2-14.3-13.4-25.2-27.4-24.2c-12.6,0.8-22.3,11.1-23.2,23.6
	c-10.6,3.4-17.9,13.9-16.9,25.9c0.8,9.7,6.8,17.8,15,21.5c-4.4,3.6-7,9.2-6.5,15.4c0.8,10,9.3,17.5,19.1,16.9
	c0.9-0.1,1.7-0.2,2.5-0.4c0,0.1,0,0.1,0,0.2c0.2,2.6,0.9,5.1,2,7.3h34.1C968.8,454,969.4,450.7,969.2,447.2z"/>
<path class="st1" d="M980.7,447.2c-0.8-28.2-24.2-50.4-52.3-49.6c-9.7,0.3-18.6,3.2-26.2,8.1c0-0.2,0-0.4,0-0.6
	c-0.7-27-23.2-48.3-50.2-47.6c-18,0.5-33.5,10.7-41.6,25.4c-4.8-2.4-10.3-3.8-16-3.6c-17.1,0.5-30.8,13.6-32.5,30.2
	c-5.7-2.1-11.8-3.2-18.2-3c-26.8,0.7-48,22.8-47.8,49.5h284.2C980.6,453.1,980.8,450.2,980.7,447.2z"/>
<path class="st0" d="M415.9,71.8c-3,0.6-5.9,1.6-8.5,3c-0.1-0.4-0.1-0.9-0.2-1.3c-3.3-17-19.8-28.1-36.8-24.8
	c-9.9,1.9-17.7,8.3-22,16.6c-5.7-3.6-12.7-5-19.8-3.7c-10.9,2.1-19,10.4-21.5,20.5c-3.2-0.6-6.5-0.6-9.8,0.1
	c-12.6,2.5-21.4,13.4-21.5,25.8h175.3c0.9-4,1-8.1,0.2-12.4C448.1,79.3,432.2,68.6,415.9,71.8z"/>
<path class="st0" d="M190.2,216.5c-1.4,0.3-2.7,0.7-3.9,1.2c-0.1-0.8-0.2-1.5-0.3-2.3c-2.1-10.9-12.6-18-23.5-15.8
	c-6,1.2-10.8,4.9-13.6,9.8c-4.1-4.1-10.1-6.2-16.2-5c-7.4,1.5-12.9,7.3-14.2,14.4c-2.3-0.4-4.7-0.4-7.2,0.1
	c-8,1.6-13.9,7.7-15.6,15.2H211c0-1.2-0.1-2.4-0.3-3.6C208.9,220.9,199.7,214.7,190.2,216.5z M150.3,232.8c0.2-0.2,0.4-0.5,0.5-0.7
	c0.4,0.5,0.8,0.9,1.2,1.3C151.5,233.2,150.9,233,150.3,232.8z"/>
<path class="st0" d="M369.4,154.4c-1.1,0.2-2.1,0.5-3,1c0-0.6-0.1-1.2-0.2-1.8c-1.7-8.5-9.9-14-18.3-12.4c-4.7,0.9-8.4,3.8-10.6,7.6
	c-3.2-3.2-7.9-4.9-12.6-3.9c-5.8,1.1-10.1,5.7-11.1,11.2c-1.8-0.3-3.7-0.3-5.6,0.1c-6.2,1.2-10.8,6-12.2,11.8h90
	c0-0.9-0.1-1.9-0.3-2.8C384,157.8,376.8,152.9,369.4,154.4z M338.3,167.1c0.1-0.2,0.3-0.4,0.4-0.6c0.3,0.4,0.6,0.7,0.9,1
	C339.2,167.4,338.7,167.2,338.3,167.1z"/>
<g>
	<g>
		<g>
			<g>
				<path class="st2" d="M625.5,278.7c-15,5.3-22.5,26.6-18.2,38.6c4.2,12,48.8,48.4,48.8,48.4c1.6-23.8,11.9-56.5,7.8-68.3
					C659.7,285.6,640.5,273.4,625.5,278.7z"/>
				<path class="st3" d="M625.8,279.6c-12.3,4.3-18.4,21.7-14.9,31.5c3.5,9.8,39.9,39.6,39.9,39.6c1.3-19.4,9.8-46.1,6.4-55.8
					C653.7,285.2,638.1,275.3,625.8,279.6z"/>
				<path class="st1" d="M625.8,279.5c-9.5,3.3-14.1,16.7-11.5,24.3c2.7,7.6,30.7,30.5,30.7,30.5c1-15,7.5-35.6,4.9-43
					C647.3,283.8,635.2,276.2,625.8,279.5z"/>
			</g>
			<g>
				<path class="st2" d="M616,288.7c-10.5,1.2-18.4,14-17.4,22.4c1,8.4,24.6,38.5,24.6,38.5c4.5-15.2,16-34.9,15-43.2
					C637.2,298.2,626.6,287.5,616,288.7z"/>
				<path class="st3" d="M616.1,289.4c-8.6,1-15.1,11.4-14.3,18.3c0.8,6.9,20.1,31.5,20.1,31.5c3.7-12.4,13-28.5,12.2-35.3
					C633.4,297.1,624.7,288.3,616.1,289.4z"/>
				<path class="st1" d="M616.1,289.3c-6.6,0.8-11.6,8.8-11,14.1c0.6,5.3,15.5,24.3,15.5,24.3c2.8-9.6,10.1-22,9.4-27.2
					C629.4,295.2,622.7,288.5,616.1,289.3z"/>
			</g>
			<g>
				<path class="st2" d="M619.8,284.9c-5,4.5-4.6,14-1,18c3.6,4,26.8,11.2,26.8,11.2c-3.1-9.6-4.3-24-7.8-28
					C634.3,282.2,624.8,280.4,619.8,284.9z"/>
				<path class="st3" d="M620,285.2c-4.1,3.6-3.7,11.4-0.8,14.7c2.9,3.3,21.9,9.2,21.9,9.2c-2.6-7.8-3.5-19.6-6.3-22.9
					C631.9,282.9,624.2,281.5,620,285.2z"/>
				<path class="st1" d="M620,285.1c-3.2,2.8-2.9,8.8-0.6,11.3c2.2,2.5,16.9,7.1,16.9,7.1c-2-6-2.7-15.1-4.9-17.6
					C629.1,283.4,623.2,282.3,620,285.1z"/>
			</g>
		</g>
	</g>
</g>
<path class="st4" d="M564.6,220.1c0,0-15.2,16.7-18.3,38.6c-3.9,27.8,4.8,65.6,10.2,66.4c5.3,0.9,5.1-18.6,10.9-31.9
	c9.6-22.1,23.1-25.3,23.1-25.3L564.6,220.1z"/>
<path class="st5" d="M635.1,197.2c0,0,22.1,4.7,37.5,20.6c19.5,20.2,34.4,56,30.6,59.8c-3.8,3.8-15-12.1-27.6-19.5
	c-20.7-12.2-33.5-7-33.5-7L635.1,197.2z"/>
<path class="st6" d="M653.3,280.5c0-7.2-0.7-57.4-19.1-114.2c-15.2-46.9-50.9-64.8-71.5-72.7c-12.2,18.5-30.6,53.9-15.5,100.8
	c18.4,56.8,47.2,97.9,51.4,103.8L653.3,280.5z"/>
<path class="st7" d="M527.3,172.5c23.2,71.9,54.8,108.8,60.1,116.2l69.3-22.4c0-9.1,4-57.5-19.2-129.4
	c-10.2-31.7-29.6-58.4-49.5-77.9l-66.2,21.4C517.2,107.8,517.1,140.8,527.3,172.5z"/>
<path class="st4" d="M540.7,25.6c-7.2,10.9-14.8,30.7-18.8,54.8L588,58.9C570.6,41.8,552.9,30.2,540.7,25.6z"/>
<path class="st8" d="M588,58.9l-33.1,10.7l67.2,207.8l34.6-11.2c0-9.1,4-57.5-19.2-129.4C627.2,105.1,607.9,78.5,588,58.9z"/>
<g>
	<path class="st9" d="M565,100.8c-13.1,4.2-20.3,18.3-16.1,31.4c4.2,13.1,18.3,20.3,31.4,16.1c13.1-4.2,20.3-18.3,16.1-31.4
		C592.2,103.7,578.1,96.5,565,100.8z"/>
	<g>
		<path class="st6" d="M601.7,130.6c3.3-16-7-31.7-23-34.9c-16-3.3-31.6,7-34.9,23c-3.3,16,7,31.6,23,34.9
			C582.7,156.9,598.4,146.6,601.7,130.6z M595.3,129.3c-2.6,12.5-14.7,20.5-27.2,17.9c-12.5-2.6-20.5-14.8-17.9-27.2
			c2.6-12.5,14.7-20.5,27.2-17.9C589.8,104.6,597.8,116.8,595.3,129.3z"/>
		<path class="st10" d="M597.4,129.7c2.8-13.6-6-26.9-19.6-29.8c-13.6-2.8-26.9,6-29.7,19.6c-2.8,13.6,6,26.9,19.6,29.7
			C581.3,152.1,594.6,143.3,597.4,129.7z"/>
		<path class="st11" d="M556.4,137.3c-5.2-7-5.4-16.9,0-24.3c5.4-7.4,14.9-10.1,23.1-7.3c0,0-9.9,8.3-14.4,14.5
			C560.4,126.6,556.4,137.3,556.4,137.3z"/>
	</g>
</g>
<path class="st4" d="M602.8,217.1L602.8,217.1L602.8,217.1c-4.7,1.5-5.5,9.8-2.3,19.5c3.1,9.7,22.9,67.2,29.6,65c0,0,0,0,0,0
	c0,0,0,0,0,0c6.7-2.2-10.9-60.3-14-70C612.9,221.8,607.4,215.6,602.8,217.1z"/>
<path class="st5" d="M554.9,69.6L588,58.9c-17.4-17.1-35.1-28.7-47.3-33.4c0,0,0,0,0,0L554.9,69.6z"/>
<path class="st5" d="M602.8,217.1L602.8,217.1l27.3,84.5c0,0,0,0,0,0c6.7-2.2-10.9-60.3-14-70C612.9,221.8,607.4,215.6,602.8,217.1z
	"/>
<path class="st0" d="M104.1,410.9c-2-0.9-4.1-1.4-6.2-1.8c0.6-1.1,1.1-2.1,1.6-3.3c6.8-16.1-0.8-34.7-16.9-41.5
	c-8.9-3.7-18.5-3.1-26.5,0.9c-1.7-9-7.7-17.1-16.8-20.9c-11-4.6-23.4-1.7-31.3,6.4c-2.1-2-4.4-3.7-7.1-5.1v103.4
	c9.4,3.7,19.5,2.6,27.7-2c1.5,3.4,3.7,6.5,6.4,9H113c2.5-2.5,4.5-5.4,5.9-8.8C124.8,433.1,118.2,416.8,104.1,410.9z M37.5,397.2
	c0.5-0.2,0.9-0.3,1.4-0.5c0.1,0.9,0.2,1.8,0.4,2.7C38.7,398.6,38.1,397.9,37.5,397.2z"/>
<path class="st0" d="M488,435.8c4.3-11.9,1.6-24.6-5.9-33.7c2.8-2.5,5.1-5.7,6.5-9.5c4.1-11.3-1-23.6-11.3-28.9
	c2.8-3.2,5.1-6.9,6.6-11.1c6.5-17.9-2.7-37.6-20.6-44.1c-17.9-6.5-37.6,2.7-44.1,20.6c-0.7,2-1.2,4-1.6,6c-1.5-0.8-3.1-1.5-4.7-2.1
	c-19.1-6.9-40.1,2.9-47,22c-5.9,16.3,0.4,34,14.2,43.1c-4.2,3.5-7.5,8.1-9.5,13.6c-4.4,12-1,24.9,7.5,33.3c-1.1,1.9-2.1,3.9-2.9,6
	c-0.6,1.7-1.1,3.3-1.4,5h94.7C477.2,452.5,484.5,445.4,488,435.8z"/>
<path class="st0" d="M769.9,345.4c-1.7-1.1-3.6-2-5.6-2.8c-17.5-6.9-37.3,1.7-44.1,19.3c-0.8,2-1.3,3.9-1.7,5.9
	c-1.5-0.8-3-1.6-4.6-2.2c-18.7-7.3-39.8,1.9-47.1,20.5c-6.3,15.9-0.5,33.6,12.9,43c-4.2,3.3-7.7,7.8-9.8,13.2
	c-1.8,4.5-2.4,9.2-2.1,13.7h102.1V345.4z"/>
<path class="st0" d="M351.6,352.6c1.7-2.6,3.1-5.5,4.1-8.6c4.6-15.1-2.6-30.7-15.9-34.7c-12.1-3.7-25.2,3.3-31,15.9
	c-11.3-0.4-22.2,7.8-26.1,20.5c-3.1,10.3-0.7,20.7,5.5,27.5c-5.5,2.1-10.1,7-12.1,13.5c-3.2,10.5,1.8,21.4,11.1,24.2
	c0.8,0.3,1.7,0.4,2.5,0.5c0,0.1-0.1,0.1-0.1,0.2c-3.4,11.3,1.9,23,12,26c10,3,21-3.7,24.4-15c0.6-2.1,1-4.1,1-6.1
	c0.3,0.1,0.5,0.2,0.8,0.3c16.1,4.9,33.5-5.9,39-24C371.8,376.1,365.1,359.1,351.6,352.6z"/>
<path class="st0" d="M365.3,404.9c-0.8-28.2-24.2-50.4-52.3-49.6c-9.7,0.3-18.6,3.2-26.2,8.1c0-0.2,0-0.4,0-0.6
	c-0.7-27-23.2-48.3-50.2-47.6c-18,0.5-33.5,10.7-41.6,25.4c-4.8-2.4-10.3-3.8-16-3.6c-17.1,0.5-30.8,13.6-32.5,30.2
	c-5.7-2.1-11.8-3.2-18.2-3c-27.1,0.7-48.5,23.3-47.8,50.4c0.5,17.8,10.4,33.2,24.8,41.4h220C348.8,450.8,366,429.7,365.3,404.9z"/>
<path class="st1" d="M653.6,388.4c-21.9-11.3-48.1-5.7-63.6,12.1c-4.1-6.6-10-12.2-17.4-16c-16.2-8.4-35-6-48.5,4.5
	c-2.5-1.9-5.1-3.7-8-5.1c-25-12.9-55.7-3.2-68.7,21.8c-8.5,16.5-7.2,35.6,1.9,50.3h228C688.5,430.9,678.3,401.1,653.6,388.4z"/>
<path class="st1" d="M128,438.8c-1.2-13.5-13-23.5-26.5-22.3c-1.9,0.2-3.8,0.6-5.6,1.1c0-1.1,0-2.2-0.1-3.2
	c-1.3-15.4-14.9-26.9-30.4-25.6c-8.5,0.7-15.8,5.2-20.4,11.6C40,394.1,32,390.3,23.3,391c-10.6,0.9-19,8.3-21.9,17.9
	c-0.1,0-0.2-0.1-0.4-0.1V456h121.9C126.6,451.3,128.6,445.3,128,438.8z M43.6,433.3c0.3-0.3,0.6-0.6,0.9-1c0.5,0.7,0.9,1.3,1.5,2
	C45.2,433.9,44.4,433.6,43.6,433.3z"/>
<path class="st1" d="M482.1,428c2.8-2.5,5.1-5.7,6.5-9.5c4.1-11.3-1-23.6-11.3-28.9c2.8-3.2,5.1-6.9,6.6-11.1
	c6.5-17.9-2.7-37.6-20.6-44.1c-17.9-6.5-37.6,2.7-44.1,20.6c-0.7,2-1.2,4-1.6,6c-1.5-0.8-3.1-1.5-4.7-2.1c-19.1-6.9-40.1,2.9-47,22
	c-5.9,16.3,0.4,34,14.2,43.1c-4.2,3.5-7.5,8.1-9.5,13.6c-2.2,6.2-2.4,12.6-0.9,18.5h120C491.3,445.9,488.4,435.7,482.1,428z"/>
<path class="st1" d="M769.9,403.7c-14.4-6.5-31.8-2.3-41.5,10.9c-1.2,1.7-2.3,3.5-3.2,5.3c-1.2-1.2-2.5-2.3-3.9-3.3
	c-16.2-11.8-38.9-8.3-50.8,7.9c-6.9,9.4-8.6,21.1-5.6,31.6h104.9V403.7z"/>
<path class="st1" d="M360.6,445.2c-0.2-2.1-0.6-4.2-1.3-6.1c0.3,0,0.5,0,0.8,0c16.7-1.2,29.2-17.5,27.8-36.4
	c-1.3-17.3-13.7-30.7-28.6-31.9c0.7-3,1-6.2,0.7-9.5c-1.2-15.8-13.4-27.7-27.4-26.7c-12.6,0.9-22.3,12.2-23.2,26
	c-10.6,3.7-17.9,15.3-16.9,28.5c0.8,10.7,6.8,19.6,15,23.7c-4.4,3.9-7,10.2-6.5,17c0.8,11,9.3,19.3,19.1,18.6
	c0.9-0.1,1.7-0.2,2.5-0.4c0,0.1,0,0.1,0,0.2c0.2,2.9,0.9,5.6,2,8h34.1C360.2,452.7,360.9,449.1,360.6,445.2z"/>
<path class="st1" d="M386.2,447.2c-0.8-28.2-24.2-50.4-52.3-49.6c-9.7,0.3-18.6,3.2-26.2,8.1c0-0.2,0-0.4,0-0.6
	c-0.7-27-23.2-48.3-50.2-47.6c-18,0.5-33.5,10.7-41.6,25.4c-4.8-2.4-10.3-3.8-16-3.6c-17.1,0.5-30.8,13.6-32.5,30.2
	c-5.7-2.1-11.8-3.2-18.2-3c-26.8,0.7-48,22.8-47.8,49.5h284.2C386.1,453.1,386.3,450.2,386.2,447.2z"/>
<path class="st0" d="M101.2,31.5c-1.4,0.3-2.7,0.7-3.9,1.2c-0.1-0.8-0.2-1.5-0.3-2.3c-2.1-10.9-12.6-18-23.5-15.8
	c-6,1.2-10.8,4.9-13.6,9.8c-4.1-4.1-10.1-6.2-16.2-5c-7.4,1.5-12.9,7.3-14.2,14.4c-2.3-0.4-4.7-0.4-7.2,0.1
	c-8,1.6-13.9,7.7-15.6,15.2h115.3c0-1.2-0.1-2.4-0.3-3.6C119.9,35.9,110.7,29.7,101.2,31.5z M61.4,47.8c0.2-0.2,0.4-0.5,0.5-0.7
	c0.4,0.5,0.8,0.9,1.2,1.3C62.6,48.2,62,48,61.4,47.8z"/>
</svg>
