<svg xmlns="http://www.w3.org/2000/svg" viewBox="0 0 130 130">
  <defs>
    <style>
      .cls-1 {
        fill: #fff;
      }

      .cls-2, .cls-4 {
        fill: none;
      }

      .cls-2 {
        stroke: #fff;
        stroke-dasharray: 10;
      }

      .cls-3 {
        stroke: none;
      }
    </style>
  </defs>
  <g id="Group_35" data-name="Group 35" transform="translate(-1032 -830)">
    <g id="university" transform="translate(1054 851.865)">
      <g id="Group_21" data-name="Group 21" transform="translate(30.065 20.188)">
        <g id="Group_20" data-name="Group 20">
          <rect id="Rectangle_6" data-name="Rectangle 6" class="cls-1" width="4.983" height="4.983"/>
        </g>
      </g>
      <g id="Group_23" data-name="Group 23" transform="translate(40.031 20.188)">
        <g id="Group_22" data-name="Group 22">
          <rect id="Rectangle_7" data-name="Rectangle 7" class="cls-1" width="4.983" height="4.983"/>
        </g>
      </g>
      <g id="Group_25" data-name="Group 25" transform="translate(49.997 20.188)">
        <g id="Group_24" data-name="Group 24">
          <rect id="Rectangle_8" data-name="Rectangle 8" class="cls-1" width="4.983" height="4.983"/>
        </g>
      </g>
      <g id="Group_27" data-name="Group 27" transform="translate(0 0.135)">
        <g id="Group_26" data-name="Group 26">
          <path id="Path_13" data-name="Path 13" class="cls-1" d="M85.045,35.138V21.132L42.522.135,0,21.132V35.138H9.966V60.053H4.983v9.966H0V85.135H85.045V70.02H80.062V60.053H75.079V35.138ZM30.607,80.152H4.983V75h26.9ZM33.119,70.02H9.966V65.037H34.355Zm-18.17-9.966V35.138H20.1V60.053Zm20.1,0H25.082V35.138h9.966Zm.693,20.1,3.748-15.115h6.068L49.3,80.152Zm4.29-20.1V35.138h4.983V60.053ZM50.69,65.037H75.079V70.02H51.926ZM50,60.053V35.138h9.966V60.053Zm14.949,0V35.138H70.1V60.053ZM80.062,75v5.149H54.438L53.161,75ZM4.983,30.155V24.229L42.522,5.693,80.062,24.229v5.926Z" transform="translate(0 -0.135)"/>
        </g>
      </g>
    </g>
    <g id="Ellipse_6" data-name="Ellipse 6" class="cls-2" transform="translate(1032 830)">
      <circle class="cls-3" cx="65" cy="65" r="65"/>
      <circle class="cls-4" cx="65" cy="65" r="64.5"/>
    </g>
  </g>
</svg>
