<svg xmlns="http://www.w3.org/2000/svg" viewBox="0 0 130 130">
  <defs>
    <style>
      .cls-1 {
        fill: #fff;
        stroke-width: 2px;
      }

      .cls-1, .cls-2 {
        stroke: #fff;
      }

      .cls-2, .cls-4 {
        fill: none;
      }

      .cls-2 {
        stroke-dasharray: 10;
      }

      .cls-3 {
        stroke: none;
      }
    </style>
  </defs>
  <g id="Group_34" data-name="Group 34" transform="translate(-618 -831)">
    <g id="value" transform="translate(641 851.971)">
      <g id="Group_7" data-name="Group 7" transform="translate(52.416 9.946)">
        <g id="Group_6" data-name="Group 6">
          <path id="Path_6" data-name="Path 6" class="cls-1" d="M308.778,61.7h0a4.254,4.254,0,0,1-4.25-4.25,1.417,1.417,0,1,0-2.833,0,4.254,4.254,0,0,1-4.249,4.25,1.417,1.417,0,0,0,0,2.833,4.254,4.254,0,0,1,4.249,4.25,1.417,1.417,0,1,0,2.833,0,4.254,4.254,0,0,1,4.25-4.25,1.416,1.416,0,0,0,1.417-1.416h0A1.416,1.416,0,0,0,308.778,61.7Zm-5.667,2.838a7.14,7.14,0,0,0-1.421-1.421,7.141,7.141,0,0,0,1.421-1.421,7.143,7.143,0,0,0,1.421,1.421A7.138,7.138,0,0,0,303.111,64.533Z" transform="translate(-296.029 -56.029)"/>
        </g>
      </g>
      <g id="Group_9" data-name="Group 9" transform="translate(18.42 9.946)">
        <g id="Group_8" data-name="Group 8">
          <path id="Path_7" data-name="Path 7" class="cls-1" d="M116.777,61.7a4.254,4.254,0,0,1-4.249-4.25,1.416,1.416,0,1,0-2.833,0,4.254,4.254,0,0,1-4.249,4.25,1.417,1.417,0,0,0,0,2.833,4.254,4.254,0,0,1,4.249,4.25,1.416,1.416,0,1,0,2.833,0,4.254,4.254,0,0,1,4.249-4.25,1.417,1.417,0,0,0,0-2.833Zm-5.666,2.838a7.142,7.142,0,0,0-1.421-1.421,7.142,7.142,0,0,0,1.421-1.421,7.143,7.143,0,0,0,1.421,1.421A7.138,7.138,0,0,0,111.111,64.533Z" transform="translate(-104.029 -56.029)"/>
        </g>
      </g>
      <g id="Group_11" data-name="Group 11" transform="translate(35.418 0.029)">
        <g id="Group_10" data-name="Group 10" transform="translate(0 0)">
          <path id="Path_8" data-name="Path 8" class="cls-1" d="M212.777,5.7a4.254,4.254,0,0,1-4.249-4.25A1.416,1.416,0,0,0,207.112.029h0a1.416,1.416,0,0,0-1.416,1.416h0a4.254,4.254,0,0,1-4.249,4.25,1.417,1.417,0,0,0,0,2.833,4.254,4.254,0,0,1,4.249,4.25,1.416,1.416,0,1,0,2.833,0,4.254,4.254,0,0,1,4.249-4.25,1.417,1.417,0,0,0,0-2.833Zm-5.666,2.838a7.143,7.143,0,0,0-1.421-1.421,7.143,7.143,0,0,0,1.421-1.421,7.143,7.143,0,0,0,1.421,1.421A7.138,7.138,0,0,0,207.111,8.533Z" transform="translate(-200.029 -0.029)"/>
        </g>
      </g>
      <g id="Group_13" data-name="Group 13" transform="translate(19.836 21.279)">
        <g id="Group_12" data-name="Group 12">
          <path id="Path_9" data-name="Path 9" class="cls-1" d="M134.693,120.029A22.667,22.667,0,1,0,157.357,142.7,22.665,22.665,0,0,0,134.693,120.029Zm0,42.5A19.833,19.833,0,1,1,154.524,142.7,19.832,19.832,0,0,1,134.693,162.529Z" transform="translate(-112.029 -120.029)"/>
        </g>
      </g>
      <g id="Group_15" data-name="Group 15" transform="translate(28.335 28.362)">
        <g id="Group_14" data-name="Group 14">
          <path id="Path_10" data-name="Path 10" class="cls-1" d="M160.029,174.2h2.833a11.346,11.346,0,0,1,11.332-11.333v-2.833A14.182,14.182,0,0,0,160.029,174.2Z" transform="translate(-160.029 -160.029)"/>
        </g>
      </g>
      <g id="Group_17" data-name="Group 17" transform="translate(53.832 34.029)">
        <g id="Group_16" data-name="Group 16">
          <path id="Path_11" data-name="Path 11" class="cls-1" d="M335.192,223.9l-.024-25.029c0-3.9-2.429-6.842-5.642-6.842h-.271a6.181,6.181,0,0,0-5.838,5.773l-3.483,17.927a4.672,4.672,0,0,0-3.383.8l-10.69,7.519a4.324,4.324,0,0,0-1.832,3.531v14.029a1.416,1.416,0,0,0,1.416,1.417H319.61a1.416,1.416,0,0,0,1.417-1.416h0V239.82l9.326-5.938A11.987,11.987,0,0,0,335.192,223.9Zm-6.389,7.61-9.953,6.337a1.418,1.418,0,0,0-.656,1.2V240.2H306.862V227.583a1.487,1.487,0,0,1,.629-1.214l10.689-7.518a1.848,1.848,0,0,1,2.91,1.511,1.81,1.81,0,0,1-.452,1.225l-9.023,7.608,1.826,2.166,9.112-7.689a4.682,4.682,0,0,0,.008-6.612l3.652-18.814a3.5,3.5,0,0,1,3.042-3.385h.271c1.6,0,2.807,1.724,2.809,4.011l.024,25.027A9.131,9.131,0,0,1,328.8,231.51Z" transform="translate(-304.029 -192.029)"/>
        </g>
      </g>
      <g id="Group_19" data-name="Group 19" transform="translate(0 34.029)">
        <g id="Group_18" data-name="Group 18" transform="translate(0)">
          <path id="Path_12" data-name="Path 12" class="cls-1" d="M29.335,224.052l-10.689-7.518a4.675,4.675,0,0,0-3.383-.8L11.8,197.9a6.221,6.221,0,0,0-5.853-5.869H5.671c-3.213,0-5.638,2.941-5.642,6.842L.005,223.9a12,12,0,0,0,4.868,10l9.3,5.919v1.792a1.416,1.416,0,0,0,1.416,1.417H29.752a1.416,1.416,0,0,0,1.416-1.416h0V227.583A4.324,4.324,0,0,0,29.335,224.052Zm-1,16.144H17v-1.153a1.418,1.418,0,0,0-.656-1.2l-9.924-6.318A9.137,9.137,0,0,1,2.838,223.9l.024-25.029c0-2.287,1.21-4.011,2.809-4.011h.271A3.547,3.547,0,0,1,9,198.343l3.637,18.717a4.682,4.682,0,0,0,.008,6.612,1.443,1.443,0,0,0,.167.143l10.44,7.608,1.668-2.29L14.581,221.6a1.848,1.848,0,0,1,2.436-2.749L27.7,226.369a1.487,1.487,0,0,1,.631,1.215V240.2Z" transform="translate(0 -192.029)"/>
        </g>
      </g>
    </g>
    <g id="Ellipse_5" data-name="Ellipse 5" class="cls-2" transform="translate(618 831)">
      <circle class="cls-3" cx="65" cy="65" r="65"/>
      <circle class="cls-4" cx="65" cy="65" r="64.5"/>
    </g>
  </g>
</svg>
